# xmcd
#
# Track frame offsets:
#	150
#	18358
#	33597
#	54808
#	72102
#	86516
#	102811
#	127689
#	145195
#	159954
#	173908
#	188591
#	198301
#
# Disc length: 2785 seconds
#
# Revision: 2
# Processed by: cddbd v1.5.1PL0 Copyright (c) Steve Scherf et al.
# Submitted via: dBpowerAMP V4.0
#
DISCID=980adf0d
DTITLE=Jack Johnson - Brushfire Fairytales
DYEAR=2002
DGENRE=Acoustic
TTITLE0=Inaudible Melodies
TTITLE1=Middle Man
TTITLE2=Poster
TTITLE3=Sexy Plexi
TTITLE4=Flake
TTITLE5=Bubble Toes
TTITLE6=Fortunate Fool
TTITLE7=The News
TTITLE8=Drink the water
TTITLE9=Mudfootball (For Moe Lerner)
TTITLE10=F-Stop Blues
TTITLE11=Losing Hope
TTITLE12=It´s all understood
EXTD=
EXTT0=
EXTT1=
EXTT2=
EXTT3=
EXTT4=
EXTT5=
EXTT6=
EXTT7=
EXTT8=
EXTT9=
EXTT10=
EXTT11=
EXTT12=
PLAYORDER=
